# This file uses centimeters as units for non-parametric coordinates.

g default
v -0.500000 0.771911 0.068944
v 0.500000 0.771911 0.068944
v -0.500000 0.967780 0.068944
v 0.500000 0.967780 0.068944
v -0.500000 1.000476 0.032635
v 0.500000 1.000476 0.032635
v -0.500000 0.990259 0.054445
v 0.500000 0.990259 0.054445
vt 0.032419 0.032823
vt 0.954918 0.032823
vt 0.954918 0.694083
vt 0.032419 0.694083
vt 0.032419 0.817247
vt 0.954918 0.817247
vt 0.954918 0.967177
vt 0.032419 0.967177
vn 0.000000 0.000000 1.000000
vn 0.000000 0.000000 1.000000
vn 0.000000 0.066260 0.997802
vn 0.000000 0.066260 0.997802
vn 0.000000 0.743107 0.669172
vn 0.000000 0.743107 0.669172
vn 0.000000 0.905557 0.424224
vn 0.000000 0.905557 0.424224
s 1
g pCube1
f 1/1/1 2/2/2 4/3/3 3/4/4
f 7/5/5 8/6/6 6/7/7 5/8/8
f 3/4/4 4/3/3 8/6/6 7/5/5
