# This file uses centimeters as units for non-parametric coordinates.

g _default1
v 16.142712 1.094922 2.807722
v 16.936321 1.094922 3.695123
v 16.375156 1.094922 3.435209
v 16.142712 1.631978 2.807722
v 16.375156 1.631978 3.435209
v 16.936321 1.631978 3.695123
v 31.318705 1.094922 2.807722
v 31.086262 1.094922 3.435209
v 30.525093 1.094922 3.695123
v 30.525093 1.631978 3.695123
v 31.086262 1.631978 3.435209
v 31.318705 1.631978 2.807722
v 16.936321 1.631978 -2.944816
v 16.375156 1.631978 -2.684903
v 16.142712 1.631978 -2.057416
v 16.142712 1.094922 -2.057416
v 16.375156 1.094922 -2.684903
v 16.936321 1.094922 -2.944816
v 31.318705 1.631978 -2.057416
v 31.086262 1.631978 -2.684903
v 30.525093 1.631978 -2.944816
v 31.318705 1.094922 -2.057416
v 30.525093 1.094922 -2.944816
v 31.086262 1.094922 -2.684903
v 16.466156 1.631978 2.446051
v 16.698599 1.631978 3.073539
v 17.259766 1.631978 3.333452
v 30.201649 1.631978 3.333452
v 30.762815 1.631978 3.073539
v 30.995258 1.631978 2.446051
v 30.995258 1.631978 -1.695744
v 30.762815 1.631978 -2.323232
v 30.201649 1.631978 -2.583145
v 17.259766 1.631978 -2.583145
v 16.698599 1.631978 -2.323232
v 16.466156 1.631978 -1.695744
v 16.466156 2.360703 2.446051
v 16.698599 2.360703 3.073539
v 17.259766 2.360703 3.333452
v 30.995258 2.360703 2.446051
v 30.201649 2.360703 3.333452
v 30.762815 2.360703 3.073539
v 30.201649 2.360703 -2.583145
v 30.995258 2.360703 -1.695744
v 30.762815 2.360703 -2.323232
v 16.466156 2.360703 -1.695744
v 17.259766 2.360703 -2.583145
v 16.698599 2.360703 -2.323232
v 16.789600 2.360703 2.374111
v 16.789600 2.360703 -1.623804
v 16.946154 2.360703 2.796728
v 17.324104 2.360703 2.971781
v 30.137312 2.360703 2.971781
v 30.515259 2.360703 2.796728
v 30.671812 2.360703 2.374111
v 30.671812 2.360703 -1.623804
v 30.515259 2.360703 -2.046421
v 30.137312 2.360703 -2.221475
v 17.324104 2.360703 -2.221475
v 16.946154 2.360703 -2.046421
v 20.333515 1.094922 3.695123
v 20.333515 1.094922 -2.944816
v 20.333515 1.631978 -2.944816
v 20.495237 1.631978 -2.583145
v 20.495237 2.360703 -2.583145
v 20.527405 2.360703 -2.221475
v 20.527405 2.360703 2.971781
v 20.495237 2.360703 3.333452
v 20.495237 1.631978 3.333452
v 20.333515 1.631978 3.695123
v 23.730703 1.094922 3.695123
v 23.730703 1.094922 -2.944816
v 23.730703 1.631978 -2.944816
v 23.730703 1.631978 -2.583145
v 23.730703 2.360703 -2.583145
v 23.730703 2.360703 -2.221475
v 23.730703 2.360703 2.971781
v 23.730703 2.360703 3.333452
v 23.730703 1.631978 3.333452
v 23.730703 1.631978 3.695123
v 27.127899 1.094922 3.695123
v 27.127899 1.094922 -2.944816
v 27.127899 1.631978 -2.944816
v 26.966173 1.631978 -2.583145
v 26.966173 2.360703 -2.583145
v 26.934008 2.360703 -2.221475
v 26.934008 2.360703 2.971781
v 26.966173 2.360703 3.333452
v 26.966179 1.631978 3.333452
v 27.127899 1.631978 3.695123
v 30.671812 2.360703 0.460427
v 30.515259 2.360703 0.478456
v 30.137312 2.360703 0.485923
v 26.934008 2.360703 0.485923
v 23.730703 2.360703 0.485923
v 20.527405 2.360703 0.485923
v 17.324104 2.360703 0.485923
v 16.946154 2.360703 0.478456
v 16.789602 2.360703 0.460427
v 16.466156 2.360703 0.463496
v 16.466156 1.631978 0.463496
v 16.142712 1.631978 0.478925
v 16.142712 1.094922 0.478924
v 16.375156 1.094922 0.505693
v 16.936321 1.094922 0.516780
v 20.333515 1.094922 0.516780
v 23.730703 1.094922 0.516780
v 27.127899 1.094922 0.516780
v 30.525093 1.094922 0.516780
v 31.086262 1.094922 0.505693
v 31.318705 1.094922 0.478924
v 31.318705 1.631978 0.478924
v 30.995258 1.631978 0.463496
v 30.995258 2.360703 0.463496
vt 0.107127 0.862573
vt 0.138590 0.847756
vt 0.146958 0.871726
vt 0.120678 0.884924
vt 0.169732 0.842211
vt 0.171506 0.868528
vt 0.000977 0.701499
vt 0.834710 0.839694
vt 0.866257 0.846936
vt 0.857894 0.871172
vt 0.044198 0.740147
vt 0.832488 0.865671
vt 0.311723 0.012298
vt 0.897924 0.863181
vt 0.882988 0.885206
vt 0.866581 0.750380
vt 0.324381 0.039638
vt 0.896407 0.765751
vt 0.311723 0.728856
vt 0.882334 0.788163
vt 0.858693 0.774551
vt 0.835236 0.743547
vt 0.281160 0.740173
vt 0.832747 0.769592
vt 0.139173 0.749191
vt 0.170377 0.743712
vt 0.172016 0.770018
vt 0.147438 0.773161
vt 0.107629 0.764022
vt 0.121134 0.786412
vt 0.157626 0.000983
vt 0.667788 0.836707
vt 0.667829 0.862927
vt 0.336077 0.741367
vt 0.336115 0.767678
vt 0.987029 0.935858
vt 0.021278 0.858596
vt 0.999023 0.835283
vt 0.983940 0.856905
vt 0.818685 0.883703
vt 0.466774 0.198785
vt 0.659968 0.880580
vt 0.031438 0.870874
vt 0.884445 0.908152
vt 0.344078 0.785165
vt 0.185186 0.787872
vt 0.345698 0.198787
vt 0.117402 0.908070
vt 0.156322 0.728838
vt 0.345698 0.042770
vt 0.466774 0.042768
vt 0.467865 0.708634
vt 0.371304 0.708631
vt 0.974531 0.869338
vt 0.814175 0.919040
vt 0.660013 0.915900
vt 0.865505 0.938286
vt 0.052500 0.899796
vt 0.189272 0.823247
vt 0.344290 0.820486
vt 0.134999 0.939284
vt 0.058657 0.992804
vt 0.150170 0.893474
vt 0.374807 0.692879
vt 0.184762 0.886332
vt 0.468015 0.692879
vt 0.852571 0.891180
vt 0.340741 0.697320
vt 0.851999 0.795263
vt 0.354223 0.685252
vt 0.328081 0.669977
vt 0.345698 0.666843
vt 0.328081 0.197222
vt 0.328081 0.039636
vt 0.340741 0.012293
vt 0.354223 0.024359
vt 0.371302 0.000980
vt 0.374807 0.016736
vt 0.467865 0.000977
vt 0.468015 0.016732
vt 0.573034 0.000977
vt 0.603596 0.012310
vt 0.590113 0.024357
vt 0.155781 0.205158
vt 0.818789 0.787752
vt 0.155781 0.039651
vt 0.886104 0.810379
vt 0.150594 0.794850
vt 0.117793 0.809492
vt 0.162274 0.928236
vt 0.569529 0.016732
vt 0.616255 0.039628
vt 0.189040 0.921720
vt 0.598640 0.042762
vt 0.839630 0.925893
vt 0.162516 0.829508
vt 0.155781 0.370631
vt 0.135285 0.840001
vt 0.841248 0.830167
vt 0.814857 0.822851
vt 0.869273 0.841754
vt 0.668279 0.740572
vt 0.616255 0.197216
vt 0.598640 0.198783
vt 0.616255 0.669985
vt 0.603596 0.697301
vt 0.668170 0.766792
vt 0.660236 0.784441
vt 0.660142 0.820105
vt 0.155781 0.536084
vt 0.590113 0.685254
vt 0.598640 0.666849
vt 0.156322 0.012307
vt 0.155781 0.701512
vt 0.573034 0.708634
vt 0.343684 0.882755
vt 0.157626 0.740160
vt 0.344119 0.918083
vt 0.335629 0.865304
vt 0.157626 0.000990
vt 0.044198 0.001026
vt 0.569529 0.692881
vt 0.598640 0.510828
vt 0.616255 0.512395
vt 0.335456 0.838984
vt 0.467136 0.685254
vt 0.328081 0.512391
vt 0.324381 0.536093
vt 0.324381 0.701527
vt 0.000977 0.536084
vt 0.502064 0.740626
vt 0.345698 0.510824
vt 0.598640 0.354806
vt 0.324381 0.370638
vt 0.000977 0.370638
vt 0.616255 0.354806
vt 0.466774 0.510828
vt 0.324381 0.205161
vt 0.000977 0.205171
vt 0.345698 0.354806
vt 0.502133 0.766860
vt 0.466774 0.354804
vt 0.328081 0.354806
vt 0.502179 0.784528
vt 0.467136 0.024359
vt 0.466774 0.666845
vt 0.502298 0.820140
vt 0.501861 0.881303
vt 0.502102 0.916917
vt 0.501731 0.863633
vt 0.501534 0.837391
vt 0.281160 0.000977
vt 0.013635 0.728823
vt 0.013635 0.012359
vt 0.000977 0.039690
vt 0.955103 0.898268
vt 0.038171 0.964665
vt 0.961114 0.968633
vt 0.939413 0.995853
vt 0.029183 0.951525
vt 0.970332 0.956041
vt 0.013708 0.930374
vt 0.005873 0.837395
vn -0.996923 0.000000 0.078385
vn -0.745400 0.000000 0.666617
vn -0.618033 0.559058 0.552711
vn -0.912702 0.402275 0.071763
vn -0.065521 0.000000 0.997851
vn -0.059489 0.419089 0.905994
vn 0.065521 0.000000 0.997851
vn 0.745399 0.000000 0.666618
vn 0.618032 0.559058 0.552712
vn 0.059489 0.419088 0.905994
vn 0.996923 0.000000 0.078385
vn 0.912701 0.402276 0.071763
vn -0.745400 0.000000 -0.666618
vn -0.997312 0.000000 -0.073272
vn -0.916972 0.393222 -0.067369
vn -0.618032 0.559059 -0.552711
vn -0.065521 0.000000 -0.997851
vn -0.059489 0.419089 -0.905994
vn 0.745399 0.000000 -0.666619
vn 0.065521 0.000000 -0.997851
vn 0.059489 0.419090 -0.905994
vn 0.618030 0.559061 -0.552711
vn 0.997312 0.000000 -0.073271
vn 0.916971 0.393226 -0.067369
vn 0.000000 0.000000 1.000000
vn 0.000000 0.549330 0.835606
vn 0.000000 0.000000 -1.000000
vn 0.000000 0.549330 -0.835605
vn 1.000000 0.000000 0.000000
vn 0.867132 0.498078 0.000000
vn -1.000000 0.000000 0.000000
vn -0.867131 0.498080 0.000000
vn 0.055495 0.582921 0.810631
vn 0.000000 0.453414 0.891300
vn 0.905733 0.423849 0.000000
vn 0.829625 0.553410 0.073884
vn 0.000000 0.453414 -0.891300
vn 0.055495 0.582922 -0.810631
vn -0.829625 0.553411 0.073884
vn -0.905733 0.423849 0.000000
vn 0.068299 0.000000 0.997665
vn 0.000000 0.000000 1.000000
vn 0.996058 0.000000 0.088706
vn 1.000000 0.000000 0.000000
vn 0.068299 0.000000 -0.997665
vn 0.000000 0.000000 -1.000000
vn -0.996058 0.000000 0.088706
vn -1.000000 0.000000 0.000000
vn 0.000000 -1.000000 0.000000
vn 0.000000 -1.000000 0.000000
vn 0.000000 -1.000000 0.000000
vn 0.000000 -1.000000 0.000000
vn 0.000000 1.000000 0.000000
vn 0.000000 1.000000 0.000000
vn 0.000000 1.000000 0.000000
vn 0.000000 1.000000 0.000000
vn -0.574570 0.637052 0.513843
vn -0.055495 0.582922 0.810631
vn 0.574569 0.637054 0.513842
vn -0.574569 0.637053 -0.513842
vn -0.055495 0.582922 -0.810631
vn -0.828115 0.556287 -0.069074
vn 0.574567 0.637056 -0.513840
vn 0.828112 0.556290 -0.069073
vn -0.745400 0.000000 0.666617
vn -0.068299 0.000000 0.997665
vn 0.745400 0.000000 0.666617
vn 0.745400 0.000000 -0.666617
vn 0.996539 0.000000 -0.083122
vn -0.745400 0.000000 -0.666617
vn -0.068299 0.000000 -0.997665
vn -0.996539 0.000000 -0.083122
vn 0.000000 1.000000 0.000000
vn 0.000000 1.000000 -0.000000
vn 0.000000 1.000000 -0.000000
vn 0.000000 1.000000 0.000000
vn 0.000000 1.000000 -0.000000
vn 0.000000 1.000000 -0.000000
vn 0.000000 1.000000 -0.000000
vn 0.000000 1.000000 -0.000000
vn 0.000000 1.000000 0.000000
vn 0.000000 1.000000 0.000000
vn 0.000000 1.000000 0.000000
vn 0.000000 1.000000 0.000000
vn 0.000000 1.000000 0.000000
vn 0.000000 1.000000 0.000000
vn 0.000000 1.000000 0.000000
vn 0.000000 1.000000 0.000000
vn 0.000000 1.000000 -0.000000
vn 0.000000 1.000000 -0.000000
vn 0.000000 1.000000 -0.000000
vn 0.000000 1.000000 -0.000000
vn 0.000000 1.000000 0.000000
vn 0.000000 1.000000 0.000000
vn 0.000000 1.000000 0.000000
vn 0.000000 1.000000 0.000000
vn 0.000000 1.000000 -0.000000
vn 0.000000 1.000000 0.000000
vn 0.000000 1.000000 0.000000
vn 0.000000 1.000000 -0.000000
vn 0.000000 1.000000 0.000000
vn 0.000000 1.000000 0.000000
vn 0.000000 -1.000000 0.000000
vn 0.000000 -1.000000 0.000000
vn 0.000000 -1.000000 0.000000
vn 0.000000 -1.000000 0.000000
vn 0.000000 0.000000 -1.000000
vn 0.000000 0.549330 -0.835605
vn 0.000000 0.453414 -0.891300
vn 0.000000 0.000000 -1.000000
vn 0.000000 1.000000 0.000000
vn 0.000000 1.000000 0.000000
vn 0.000000 1.000000 0.000000
vn 0.000000 1.000000 -0.000000
vn 0.000000 1.000000 -0.000000
vn 0.000000 0.453414 0.891300
vn 0.000000 0.000000 1.000000
vn 0.000000 0.549330 0.835606
vn 0.000000 0.000000 1.000000
vn 0.000000 -1.000000 0.000000
vn 0.000000 -1.000000 0.000000
vn 0.000000 0.000000 -1.000000
vn 0.000000 0.549330 -0.835606
vn 0.000000 0.453414 -0.891300
vn 0.000000 0.000000 -1.000000
vn 0.000000 1.000000 0.000000
vn 0.000000 1.000000 0.000000
vn 0.000000 1.000000 0.000000
vn 0.000000 1.000000 0.000000
vn 0.000000 1.000000 0.000000
vn 0.000000 1.000000 0.000000
vn 0.000000 0.453414 0.891300
vn 0.000000 0.000000 1.000000
vn 0.000000 0.549330 0.835606
vn 0.000000 0.000000 1.000000
vn 0.000000 -1.000000 0.000000
vn 0.000000 -1.000000 0.000000
vn 0.000000 1.000000 0.000000
vn 0.000000 1.000000 0.000000
vn 0.000000 -1.000000 0.000000
vn 0.000000 -1.000000 0.000000
vn 0.000000 -1.000000 0.000000
vn 0.000000 -1.000000 0.000000
vn 0.000000 -1.000000 0.000000
vn 0.000000 -1.000000 0.000000
vn -0.895410 0.445243 0.000000
vn -1.000000 0.000000 0.000000
vn -0.879698 0.475533 0.000000
vn -1.000000 0.000000 0.000000
vn 0.000000 -1.000000 0.000000
vn 0.000000 -1.000000 0.000000
vn 0.000000 -1.000000 0.000000
vn 0.000000 -1.000000 0.000000
vn 0.000000 -1.000000 0.000000
vn 0.000000 -1.000000 0.000000
vn 0.000000 -1.000000 0.000000
vn 0.000000 -1.000000 0.000000
vn 0.000000 -1.000000 0.000000
vn 0.000000 -1.000000 0.000000
vn 1.000000 0.000000 0.000000
vn 0.879695 0.475538 0.000000
vn 0.895408 0.445246 0.000000
vn 1.000000 0.000000 0.000000
s 1
g _group3 _pCube10 _polySurface1
f 1/1/1 3/2/2 5/3/3 4/4/4
f 3/2/2 2/5/5 6/6/6 5/3/3
f 9/8/7 8/9/8 11/10/9 10/12/10
f 8/9/8 7/14/11 12/15/12 11/10/9
s 3
f 17/16/13 16/18/14 15/20/15 14/21/16
f 18/22/17 17/16/13 14/21/16 13/24/18
f 24/25/19 23/26/20 21/27/21 20/28/22
f 22/29/23 24/25/19 20/28/22 19/30/24
s 1
f 81/32/25 9/8/7 10/12/10 90/33/26
s 3
f 23/26/20 82/34/27 83/35/28 21/27/21
s 1
f 12/15/12 7/14/11 111/36/29 112/161/30
f 103/162/31 1/1/1 4/4/4 102/160/32
f 90/33/26 10/12/10 28/40/33 89/42/34
f 12/15/12 112/161/30 113/158/35 30/44/36
s 3
f 21/27/21 83/35/28 84/45/37 33/46/38
s 1
f 102/160/32 4/4/4 25/48/39 101/157/40
f 89/42/34 28/40/33 41/55/41 88/56/42
f 40/57/43 30/44/36 113/158/35 114/159/44
s 3
f 43/59/45 33/46/38 84/45/37 85/60/46
s 1
f 101/157/40 25/48/39 37/61/47 100/62/48
s 5
f 111/117/49 7/11/50 8/153/51 110/49/52
s 6
f 94/41/53 87/47/54 53/50/55 93/51/56
s 1
f 4/4/4 5/3/3 26/63/57 25/48/39
f 5/3/3 6/6/6 27/65/58 26/63/57
f 10/12/10 11/10/9 29/67/59 28/40/33
f 29/67/59 11/10/9 12/15/12 30/44/36
s 3
f 13/24/18 14/21/16 35/69/60 34/85/61
f 14/21/16 15/20/15 36/87/62 35/69/60
f 19/30/24 20/28/22 32/88/63 31/89/64
f 20/28/22 21/27/21 33/46/38 32/88/63
s 1
f 25/48/39 26/63/57 38/90/65 37/61/47
f 38/90/65 26/63/57 27/65/58 39/93/66
f 28/40/33 29/67/59 42/95/67 41/55/41
f 42/95/67 29/67/59 30/44/36 40/57/43
s 3
f 31/89/64 32/88/63 45/96/68 44/98/69
f 45/96/68 32/88/63 33/46/38 43/59/45
f 34/85/61 35/69/60 48/99/70 47/100/71
f 48/99/70 35/69/60 36/87/62 46/101/72
s 6
f 100/52/73 37/53/74 49/64/75 99/66/76
f 37/53/74 38/68/77 51/70/78 49/64/75
f 38/68/77 39/71/79 52/72/80 51/70/78
f 87/47/54 88/73/81 41/74/82 53/50/55
f 41/74/82 42/75/83 54/76/84 53/50/55
f 42/75/83 40/77/85 55/78/86 54/76/84
f 40/77/85 114/79/87 91/80/88 55/78/86
f 44/81/89 45/82/90 57/83/91 56/91/92
f 45/82/90 43/92/93 58/94/94 57/83/91
f 43/92/93 85/103/95 86/104/96 58/94/94
f 47/105/97 48/106/98 60/111/99 59/112/100
f 48/106/98 46/115/101 50/122/102 60/111/99
s 5
f 106/84/103 61/139/104 2/155/105 105/86/106
s 3
f 62/102/107 18/22/17 13/24/18 63/107/108
f 63/107/108 13/24/18 34/85/61 64/108/109
f 65/109/110 64/108/109 34/85/61 47/100/71
s 6
f 66/123/111 65/124/112 47/105/97 59/112/100
f 99/66/76 49/64/75 51/70/78 98/126/113
f 39/71/79 68/127/114 67/132/115 52/72/80
s 1
f 39/93/66 27/65/58 69/116/116 68/118/117
f 6/6/6 70/119/118 69/116/116 27/65/58
f 2/5/5 61/125/119 70/119/118 6/6/6
s 5
f 107/97/120 71/135/121 61/139/104 106/84/103
s 3
f 72/131/122 62/102/107 63/107/108 73/141/123
f 73/141/123 63/107/108 64/108/109 74/144/124
f 75/147/125 74/144/124 64/108/109 65/109/110
s 6
f 76/133/126 75/136/127 65/124/112 66/123/111
f 96/137/128 67/132/115 77/140/129 95/142/130
f 67/132/115 68/127/114 78/143/131 77/140/129
s 1
f 69/116/116 79/148/132 78/149/133 68/118/117
f 70/119/118 80/150/134 79/148/132 69/116/116
f 61/125/119 71/151/135 80/150/134 70/119/118
s 5
f 108/110/136 81/130/137 71/135/121 107/97/120
s 3
f 82/34/27 72/131/122 73/141/123 83/35/28
f 83/35/28 73/141/123 74/144/124 84/45/37
f 85/60/46 84/45/37 74/144/124 75/147/125
s 6
f 86/104/96 85/103/95 75/136/127 76/133/126
f 95/142/130 77/140/129 87/47/54 94/41/53
f 77/140/129 78/143/131 88/73/81 87/47/54
s 1
f 79/148/132 89/42/34 88/56/42 78/149/133
f 80/150/134 90/33/26 89/42/34 79/148/132
f 71/151/135 81/32/25 90/33/26 80/150/134
s 6
f 92/145/138 54/76/84 55/78/86 91/80/88
f 93/51/56 53/50/55 54/76/84 92/145/138
f 97/146/139 52/72/80 67/132/115 96/137/128
f 98/126/113 51/70/78 52/72/80 97/146/139
s 5
f 104/113/140 3/154/141 1/121/142 103/120/143
f 105/86/106 2/155/105 3/154/141 104/113/140
f 109/114/144 9/7/145 81/130/137 108/110/136
f 110/49/52 8/153/51 9/7/145 109/114/144
s 6
f 57/83/91 92/145/138 91/80/88 56/91/92
f 58/94/94 93/51/56 92/145/138 57/83/91
f 86/104/96 94/41/53 93/51/56 58/94/94
f 76/133/126 95/142/130 94/41/53 86/104/96
f 66/123/111 96/137/128 95/142/130 76/133/126
f 59/112/100 97/146/139 96/137/128 66/123/111
f 60/111/99 98/126/113 97/146/139 59/112/100
f 50/122/102 99/66/76 98/126/113 60/111/99
f 46/115/101 100/52/73 99/66/76 50/122/102
s 3
f 46/101/72 36/87/62 101/54/146 100/156/147
f 15/20/15 102/39/148 101/54/146 36/87/62
f 16/18/14 103/38/149 102/39/148 15/20/15
s 5
f 17/13/150 104/113/140 103/31/151 16/152/152
f 18/17/153 105/86/106 104/113/140 17/13/150
f 62/138/154 106/84/103 105/86/106 18/17/153
f 72/134/155 107/97/120 106/84/103 62/138/154
f 82/128/156 108/110/136 107/97/120 72/134/155
f 23/129/157 109/114/144 108/110/136 82/128/156
f 24/19/158 110/49/52 109/114/144 23/129/157
f 22/23/159 111/117/49 110/49/52 24/19/158
s 3
f 111/163/160 22/29/23 19/30/24 112/37/161
f 112/37/161 19/30/24 31/89/64 113/43/162
f 114/58/163 113/43/162 31/89/64 44/98/69
s 6
f 91/80/88 114/79/87 44/81/89 56/91/92
