# This file uses centimeters as units for non-parametric coordinates.

g _set1
v -0.040493 1.117716 1.606645
v -2.519457 1.117716 1.606645
v -2.519457 0.308569 1.606645
v -0.040493 0.308569 1.606645
v -0.040493 1.117716 1.701992
v -2.519457 1.117716 1.701992
v -2.519457 0.308569 1.701992
v -0.040493 0.308569 1.701992
v -2.519457 1.117716 -1.164465
v -0.040493 1.117716 -1.164465
v -0.040493 0.308569 -1.164465
v -2.519457 0.308569 -1.164465
v -2.465970 1.117716 1.553158
v -0.093979 1.117716 1.553158
v -0.093979 1.117716 -1.110978
v -2.465970 1.117716 -1.110978
v -2.465970 0.358876 1.553158
v -0.093979 0.358876 1.553158
v -0.093979 0.358876 -1.110978
v -2.465970 0.358876 -1.110978
v -0.023376 1.134832 1.606645
v -2.536574 1.134832 1.606645
v -2.536574 0.291452 1.606645
v -0.023376 0.291452 1.606645
v -2.536574 1.134832 1.701992
v -0.023376 1.134832 1.701992
v -0.023376 0.291452 1.701992
v -2.536574 0.291452 1.701992
g default
v -1.375342 0.726650 1.843276
v -1.375342 0.749695 1.849118
v -1.492069 0.749695 1.830268
v -1.492069 0.726650 1.824426
v -1.375342 0.772740 1.843276
v -1.492069 0.772740 1.824426
v -1.586197 0.772740 1.786752
v -1.586197 0.749695 1.792593
v -1.586197 0.726650 1.786752
v -1.375342 0.780422 1.825752
v -1.492069 0.780422 1.806902
v -1.375342 0.780422 1.802386
v -1.492069 0.780422 1.783536
v -1.586197 0.780422 1.745862
v -1.586197 0.780422 1.769228
v -1.586197 0.718968 1.745862
v -1.492069 0.718968 1.783536
v -1.492069 0.718968 1.806902
v -1.586197 0.718968 1.769228
v -1.375342 0.718968 1.802386
v -1.375342 0.718968 1.825752
v -1.159377 0.726650 1.784192
v -1.159377 0.718968 1.766668
v -1.110446 0.724102 1.731605
v -1.101481 0.730500 1.743123
v -1.159377 0.718968 1.743302
v -1.122400 0.720879 1.716247
g _set4
v -1.109471 0.726650 1.693790
g default
v -1.091888 0.726650 1.693790
g _set4
v -1.072446 0.732624 1.693790
g default
v -1.066216 0.749695 1.693790
v -1.098492 0.749695 1.746963
g _set4
v -1.072446 0.766766 1.693790
g default
v -1.101481 0.768890 1.743123
v -1.159377 0.772740 1.784192
v -1.159377 0.749695 1.790034
g _set4
v -1.109471 0.772740 1.693790
g default
v -1.122400 0.778511 1.716247
v -1.110446 0.775288 1.731605
v -1.091888 0.772740 1.693790
v -1.159377 0.780422 1.743302
v -1.159377 0.780422 1.766668
v -1.256060 0.780422 1.781830
v -1.256060 0.780422 1.805195
v -1.256060 0.772740 1.822720
v -1.256060 0.749695 1.828561
v -1.256060 0.726650 1.822720
v -1.256060 0.718968 1.805195
v -1.256060 0.718968 1.781830
v -1.637683 0.776692 1.733311
v -1.646797 0.769943 1.745720
v -1.625530 0.779964 1.716766
g _set4
v -1.641278 0.777974 1.698123
g default
v -1.662208 0.777974 1.698123
g _set4
v -1.682079 0.770643 1.698123
g default
v -1.649836 0.749695 1.749857
v -1.646797 0.729447 1.745720
v -1.683913 0.749695 1.698123
g _set4
v -1.682079 0.728747 1.698123
v -1.641278 0.721416 1.698123
g default
v -1.625530 0.719426 1.716766
v -1.637683 0.722698 1.733311
v -1.662208 0.721416 1.698123
v -1.256060 0.749695 1.781830
v -1.375342 0.749695 1.802386
v -1.109471 0.749695 1.693790
v -1.122400 0.749695 1.716247
v -1.159377 0.749695 1.743302
v -1.640209 0.749695 1.698123
v -1.625530 0.749695 1.716766
v -1.492069 0.749695 1.783536
v -1.586197 0.749695 1.745862
vt -0.000499 0.717932
vt -0.000499 0.783870
vt -0.007954 0.783870
vt -0.007954 0.717932
vt -0.007954 0.856231
vt -0.007954 0.790293
vt -0.000499 0.790293
vt -0.000499 0.856231
vt -0.391277 0.001098
vt -0.328016 0.001098
vt -0.328016 0.217751
vt -0.391277 0.217751
vt -0.065948 0.217751
vt -0.129209 0.217751
vt -0.129209 0.001098
vt -0.065948 0.001098
vt -0.064670 0.217058
vt -0.064670 0.008769
vt -0.005342 0.008769
vt -0.005342 0.217058
vt -0.193748 0.647314
vt -0.193748 0.439025
vt -0.134420 0.439025
vt -0.134420 0.647314
vt -0.007954 0.633558
vt -0.007954 0.437070
vt -0.000499 0.437070
vt -0.000499 0.633558
vt -0.047437 0.439025
vt -0.047437 0.635513
vt -0.054891 0.635513
vt -0.054891 0.439025
vt -0.008300 0.432186
vt -0.193748 0.432186
vt -0.193748 0.223897
vt -0.008300 0.223897
vt -0.324782 0.001098
vt -0.130971 0.001098
vt -0.130971 0.217750
vt -0.324782 0.217750
vt -0.201647 0.228231
vt -0.387095 0.228231
vt -0.391277 0.224049
vt -0.197466 0.224049
vt -0.387095 0.436520
vt -0.391277 0.440702
vt -0.201647 0.436520
vt -0.197466 0.440702
vt -0.818237 0.612466
vt -0.754976 0.612466
vt -0.754976 0.806277
vt -0.818237 0.806277
vt -0.819575 0.611128
vt -0.753638 0.611128
vt -0.753638 0.807616
vt -0.819575 0.807616
vt -0.682675 0.808850
vt -0.682675 0.615038
vt -0.619414 0.615038
vt -0.619414 0.808850
vt -0.556854 0.613559
vt -0.556854 0.799008
vt -0.616182 0.799008
vt -0.616182 0.613559
vt -0.553600 0.799727
vt -0.553600 0.614279
vt -0.494272 0.614279
vt -0.494272 0.799727
vt -0.751125 0.809571
vt -0.751125 0.613083
vt -0.749787 0.614422
vt -0.749787 0.808233
vt -0.685188 0.613083
vt -0.686526 0.614422
vt -0.685188 0.809571
vt -0.686526 0.808233
vt -0.730056 0.879343
vt -0.725780 0.879355
vt -0.725780 0.899500
vt -0.730106 0.899762
vt -0.721504 0.879355
vt -0.721456 0.899753
vt -0.721543 0.917284
vt -0.725779 0.916820
vt -0.730015 0.917278
vt -0.718064 0.879335
vt -0.718097 0.900571
vt -0.713843 0.879307
vt -0.714053 0.901747
vt -0.714858 0.920949
vt -0.718474 0.918769
vt -0.736698 0.920957
vt -0.737509 0.901753
vt -0.733465 0.900578
vt -0.733084 0.918769
vt -0.737717 0.879298
vt -0.733496 0.879326
vt -0.729949 0.840498
vt -0.732959 0.838954
vt -0.732069 0.828336
vt -0.729290 0.828656
vt -0.736477 0.836649
vt -0.735517 0.827871
vt -0.735723 0.822905
vt -0.732802 0.820907
vt -0.729347 0.818756
vt -0.725791 0.817970
vt -0.725758 0.828718
vt -0.722199 0.818644
vt -0.722223 0.828686
vt -0.721580 0.840517
vt -0.725767 0.840989
vt -0.715797 0.822879
vt -0.716003 0.827863
vt -0.719448 0.828344
vt -0.718729 0.820845
vt -0.715052 0.836666
vt -0.718570 0.838971
vt -0.714002 0.856353
vt -0.718055 0.857583
vt -0.721426 0.858431
vt -0.725773 0.858709
vt -0.730119 0.858441
vt -0.733490 0.857586
vt -0.737540 0.856350
vt -0.719027 0.929962
vt -0.722018 0.929732
vt -0.715319 0.930279
vt -0.715279 0.934856
vt -0.718326 0.937631
vt -0.721617 0.940128
vt -0.725772 0.929665
vt -0.729534 0.929707
vt -0.725726 0.940504
vt -0.729860 0.940226
vt -0.736242 0.934898
vt -0.736222 0.930300
vt -0.732519 0.929964
vt -0.733173 0.937699
vt -0.708431 0.856222
vt -0.708258 0.879297
vt -0.711519 0.822481
vt -0.710784 0.827316
vt -0.709499 0.836194
vt -0.741509 0.934834
vt -0.741746 0.930430
vt -0.708474 0.901824
vt -0.709282 0.921110
vt -0.709793 0.930401
vt -0.742019 0.836194
vt -0.740759 0.827282
vt -0.743112 0.856214
vt -0.743302 0.879288
vt -0.743087 0.901831
vt -0.742273 0.921122
vt -0.710022 0.934799
vt -0.739995 0.822467
vn 0.000000 0.000000 1.000000
vn 0.000000 0.000000 1.000000
vn 0.000000 0.000000 1.000000
vn 0.000000 0.000000 1.000000
vn 0.000000 1.000000 0.000000
vn 0.000000 1.000000 0.000000
vn 0.000000 1.000000 0.000000
vn 0.000000 1.000000 0.000000
vn -1.000000 0.000000 0.000000
vn -1.000000 0.000000 0.000000
vn -1.000000 0.000000 0.000000
vn -1.000000 0.000000 0.000000
vn 0.000000 -1.000000 0.000000
vn 0.000000 -1.000000 0.000000
vn 0.000000 -1.000000 0.000000
vn 0.000000 -1.000000 0.000000
vn 1.000000 0.000000 0.000000
vn 1.000000 0.000000 0.000000
vn 1.000000 0.000000 0.000000
vn 1.000000 0.000000 0.000000
vn 0.000000 0.000000 -1.000000
vn 0.000000 0.000000 -1.000000
vn 0.000000 0.000000 -1.000000
vn 0.000000 0.000000 -1.000000
vn 0.000000 1.000000 0.000000
vn 0.000000 1.000000 0.000000
vn 0.000000 1.000000 0.000000
vn 0.000000 1.000000 0.000000
vn 1.000000 0.000000 0.000000
vn 1.000000 0.000000 0.000000
vn 1.000000 0.000000 0.000000
vn 1.000000 0.000000 0.000000
vn 0.000000 -1.000000 0.000000
vn 0.000000 -1.000000 0.000000
vn 0.000000 -1.000000 0.000000
vn 0.000000 -1.000000 0.000000
vn -1.000000 0.000000 0.000000
vn -1.000000 0.000000 0.000000
vn -1.000000 0.000000 0.000000
vn -1.000000 0.000000 0.000000
vn 0.000000 1.000000 0.000000
vn 0.000000 1.000000 0.000000
vn 0.000000 1.000000 0.000000
vn 0.000000 1.000000 0.000000
vn 0.000000 1.000000 0.000000
vn 0.000000 1.000000 0.000000
vn 0.000000 1.000000 0.000000
vn 0.000000 1.000000 0.000000
vn 0.000000 1.000000 0.000000
vn 0.000000 1.000000 0.000000
vn 0.000000 1.000000 0.000000
vn 0.000000 1.000000 0.000000
vn 0.000000 1.000000 0.000000
vn 0.000000 1.000000 0.000000
vn 0.000000 1.000000 0.000000
vn 0.000000 1.000000 0.000000
vn 0.000000 0.000000 -1.000000
vn 0.000000 0.000000 -1.000000
vn 0.000000 0.000000 -1.000000
vn 0.000000 0.000000 -1.000000
vn -1.000000 0.000000 0.000000
vn -1.000000 0.000000 0.000000
vn -1.000000 0.000000 0.000000
vn -1.000000 0.000000 0.000000
vn 0.000000 0.000000 1.000000
vn 0.000000 0.000000 1.000000
vn 0.000000 0.000000 1.000000
vn 0.000000 0.000000 1.000000
vn 1.000000 0.000000 0.000000
vn 1.000000 0.000000 0.000000
vn 1.000000 0.000000 0.000000
vn 1.000000 0.000000 0.000000
vn 0.000000 0.000000 -1.000000
vn 0.000000 0.000000 -1.000000
vn 0.000000 0.000000 -1.000000
vn 0.000000 0.000000 -1.000000
vn 0.000000 0.000000 -1.000000
vn 0.000000 0.000000 -1.000000
vn 0.000000 0.000000 -1.000000
vn 0.000000 0.000000 -1.000000
vn 0.000000 0.000000 -1.000000
vn 0.000000 0.000000 -1.000000
vn 0.000000 0.000000 -1.000000
vn 0.000000 0.000000 -1.000000
vn 0.000000 0.000000 -1.000000
vn 0.000000 0.000000 -1.000000
vn 0.000000 0.000000 -1.000000
vn 0.000000 0.000000 -1.000000
vn 0.000000 0.000000 1.000000
vn 0.000000 0.000000 1.000000
vn 0.000000 0.000000 1.000000
vn 0.000000 0.000000 1.000000
vn 0.000000 0.000000 1.000000
vn 0.000000 0.000000 1.000000
vn 0.000000 0.000000 1.000000
vn 0.000000 0.000000 1.000000
vn 0.000000 0.000000 1.000000
vn 0.000000 0.000000 1.000000
vn 0.000000 0.000000 1.000000
vn 0.000000 0.000000 1.000000
vn 0.000000 0.000000 1.000000
vn 0.000000 0.000000 1.000000
vn 0.000000 0.000000 1.000000
vn 0.000000 0.000000 1.000000
vn 0.005864 -0.580943 0.813923
vn 0.007091 0.000000 0.999975
vn -0.254445 -0.000000 0.967087
vn -0.210138 -0.580466 0.786703
vn 0.005865 0.580944 0.813923
vn -0.210137 0.580466 0.786703
vn -0.373917 0.571171 0.730719
vn -0.445618 -0.000000 0.895223
vn -0.373917 -0.571171 0.730719
vn 0.001581 0.978665 0.205457
vn -0.055577 0.979332 0.194473
vn 0.000000 1.000000 0.000002
vn 0.000000 1.000000 0.000000
vn -0.041434 0.998780 0.026859
vn -0.116110 0.976615 0.180947
vn -0.041434 -0.998780 0.026858
vn 0.000000 -1.000000 0.000000
vn -0.055577 -0.979333 0.194468
vn -0.116109 -0.976616 0.180943
vn 0.000000 -1.000000 0.000000
vn 0.001582 -0.978665 0.205454
vn 0.377307 -0.573139 0.727428
vn 0.121432 -0.976848 0.176131
vn 0.251139 -0.955672 0.153690
vn 0.610281 -0.543986 0.575879
vn 0.052710 -0.998379 0.021469
vn 0.125572 -0.992079 0.003191
vn 0.140543 -0.988072 -0.062941
vn 0.292083 -0.952696 0.084016
vn 0.751065 -0.507147 0.422732
vn 0.860680 0.000001 0.509146
vn 0.708730 -0.000000 0.705480
vn 0.751063 0.507150 0.422732
vn 0.610279 0.543988 0.575879
vn 0.377305 0.573139 0.727428
vn 0.448883 0.000001 0.893591
vn 0.140542 0.988072 -0.062945
vn 0.125572 0.992079 0.003186
vn 0.251140 0.955671 0.153692
vn 0.292084 0.952695 0.084018
vn 0.052710 0.998379 0.021466
vn 0.121433 0.976847 0.176135
vn 0.000000 1.000000 0.000001
vn 0.056319 0.979436 0.193734
vn 0.214142 0.580782 0.785389
vn 0.259584 0.000001 0.965720
vn 0.214143 -0.580779 0.785391
vn 0.056319 -0.979437 0.193729
vn 0.000000 -1.000000 0.000000
vn -0.217408 0.954871 0.202372
vn -0.592616 0.511192 0.622487
vn -0.082064 0.995317 0.051084
vn -0.076460 0.996097 0.044107
vn -0.271026 0.939455 0.209687
vn -0.740604 0.415992 0.527690
vn -0.681983 -0.000000 0.731368
vn -0.592616 -0.511189 0.622489
vn -0.819387 -0.000000 0.573241
vn -0.740604 -0.415991 0.527691
vn -0.076458 -0.996097 0.044107
vn -0.082064 -0.995317 0.051083
vn -0.217408 -0.954872 0.202372
vn -0.271025 -0.939454 0.209693
vn -0.263884 0.000000 -0.964555
vn -0.263884 0.000000 -0.964555
vn -0.007229 -0.000000 -0.999974
vn -0.007230 0.000000 -0.999974
vn -0.866646 -0.000000 -0.498923
vn -0.694906 0.000000 -0.719101
vn -0.683402 -0.000000 -0.730042
vn -0.866645 -0.000000 -0.498925
vn -0.437707 0.000000 -0.899118
vn -0.438983 0.000001 -0.898495
vn 0.774373 0.000000 -0.632730
vn 0.656766 0.000000 -0.754094
vn 0.654357 -0.004383 -0.756173
vn 0.774295 -0.014133 -0.632667
vn 0.258929 -0.000000 -0.965896
vn 0.258929 -0.000000 -0.965896
vn 0.447049 0.000000 -0.894509
vn 0.446750 0.000000 -0.894659
vn 0.654359 0.004383 -0.756171
vn -0.683403 0.000001 -0.730042
vn -0.437707 0.000001 -0.899118
vn -0.263884 0.000001 -0.964554
vn -0.007230 0.000000 -0.999974
vn 0.258929 0.000000 -0.965896
vn 0.446748 0.000000 -0.894660
vn 0.774295 0.014133 -0.632667
vn -0.866648 0.000000 -0.498921
s off
g _Box005 polySurface26
f 8/49/1 5/50/2 6/51/3 7/52/4
f 25/25/5 26/26/6 21/27/7 22/28/8
f 28/1/9 25/2/10 22/3/11 23/4/12
f 27/29/13 28/30/14 23/31/15 24/32/16
f 26/5/17 27/6/18 24/7/19 21/8/20
f 9/57/21 10/58/22 11/59/23 12/60/24
f 19/33/25 20/34/26 17/35/27 18/36/28
f 11/9/29 10/10/30 1/11/31 4/12/32
f 12/37/33 11/38/34 4/39/35 3/40/36
f 9/13/37 12/14/38 3/15/39 2/16/40
f 14/41/41 13/42/42 2/43/43 1/44/44
f 15/47/45 14/41/46 1/44/47 10/48/48
f 16/45/49 15/47/50 10/48/51 9/46/52
f 13/42/53 16/45/54 9/46/55 2/43/56
f 18/61/57 17/62/58 13/63/59 14/64/60
f 19/17/61 18/18/62 14/19/63 15/20/64
f 20/65/65 19/66/66 15/67/67 16/68/68
f 17/21/69 20/22/70 16/23/71 13/24/72
f 22/69/73 21/70/74 1/71/75 2/72/76
f 23/75/77 22/69/78 2/72/79 3/76/80
f 24/73/81 23/75/82 3/76/83 4/74/84
f 21/70/85 24/73/86 4/74/87 1/71/88
f 26/54/89 25/55/90 6/51/91 5/50/92
f 27/53/93 26/54/94 5/50/95 8/49/96
f 28/56/97 27/53/98 8/49/99 7/52/100
f 25/55/101 28/56/102 7/52/103 6/51/104
s 1
g _set5 polySurface26
f 29/77/105 30/78/106 31/79/107 32/80/108
f 30/78/106 33/81/109 34/82/110 31/79/107
f 31/79/107 34/82/110 35/83/111 36/84/112
f 32/80/108 31/79/107 36/84/112 37/85/113
f 33/81/109 38/86/114 39/87/115 34/82/110
f 38/86/114 40/88/116 41/89/117 39/87/115
f 39/87/115 41/89/117 42/90/118 43/91/119
f 34/82/110 39/87/115 43/91/119 35/83/111
f 44/92/120 45/93/121 46/94/122 47/95/123
f 45/93/121 48/96/124 49/97/125 46/94/122
f 46/94/122 49/97/125 29/77/105 32/80/108
f 47/95/123 46/94/122 32/80/108 37/85/113
f 50/98/126 51/99/127 52/100/128 53/101/129
f 51/99/127 54/102/130 55/103/131 52/100/128
f 52/100/128 55/103/131 56/104/132 57/105/133
f 53/101/129 52/100/128 57/105/133 58/106/134
f 58/106/134 59/107/135 60/108/136 53/101/129
f 59/107/135 61/109/137 62/110/138 60/108/136
f 60/108/136 62/110/138 63/111/139 64/112/140
f 53/101/129 60/108/136 64/112/140 50/98/126
f 65/113/141 66/114/142 67/115/143 68/116/144
f 66/114/142 69/117/145 70/118/146 67/115/143
f 67/115/143 70/118/146 63/111/139 62/110/138
f 68/116/144 67/115/143 62/110/138 61/109/137
f 69/117/145 71/119/147 72/120/148 70/118/146
f 71/119/147 40/88/116 38/86/114 72/120/148
f 72/120/148 38/86/114 33/81/109 73/121/149
f 70/118/146 72/120/148 73/121/149 63/111/139
f 50/98/126 64/112/140 74/122/150 75/123/151
f 64/112/140 63/111/139 73/121/149 74/122/150
f 74/122/150 73/121/149 33/81/109 30/78/106
f 75/123/151 74/122/150 30/78/106 29/77/105
f 29/77/105 49/97/125 76/124/152 75/123/151
f 49/97/125 48/96/124 77/125/153 76/124/152
f 76/124/152 77/125/153 54/102/130 51/99/127
f 75/123/151 76/124/152 51/99/127 50/98/126
f 35/83/111 43/91/119 78/126/154 79/127/155
f 43/91/119 42/90/118 80/128/156 78/126/154
f 78/126/154 80/128/156 81/129/157 82/130/158
f 79/127/155 78/126/154 82/130/158 83/131/159
f 37/85/113 36/84/112 84/132/160 85/133/161
f 36/84/112 35/83/111 79/127/155 84/132/160
f 84/132/160 79/127/155 83/131/159 86/134/162
f 85/133/161 84/132/160 86/134/162 87/135/163
f 88/136/164 89/137/165 90/138/166 91/139/167
f 89/137/165 44/92/120 47/95/123 90/138/166
f 90/138/166 47/95/123 37/85/113 85/133/161
f 91/139/167 90/138/166 85/133/161 87/135/163
s 5
g polySurface26
f 71/119/168 92/140/169 93/141/170 40/88/171
f 94/142/172 95/143/173 66/114/174 65/113/175
f 69/117/176 96/144/177 92/140/169 71/119/168
f 97/145/178 98/146/179 89/137/180 88/136/181
f 40/88/171 93/141/170 99/147/182 41/89/183
f 41/89/183 99/147/182 100/148/184 42/90/185
f 42/90/185 100/148/184 98/149/179 80/128/186
f 95/143/173 96/144/177 69/117/176 66/114/174
f 55/103/187 54/102/188 96/150/177 95/151/173
f 92/152/169 96/150/177 54/102/188 77/125/189
f 93/153/170 92/152/169 77/125/189 48/96/190
f 99/154/182 93/153/170 48/96/190 45/93/191
f 100/155/184 99/154/182 45/93/191 44/92/192
f 98/146/179 100/155/184 44/92/192 89/137/180
f 80/128/186 98/149/179 97/156/178 81/129/193
f 55/103/187 95/151/173 94/157/172 56/104/194
