# This file uses centimeters as units for non-parametric coordinates.

g _Box005
v -0.679686 8.098849 1.531011
v -0.679686 2.126977 1.531011
v 1.878153 2.126977 1.531011
v 1.878153 8.098849 1.531011
v -0.679686 8.098849 1.473527
v -0.679686 2.126977 1.473526
v 1.878153 2.126977 1.473526
v 1.878153 8.098849 1.473527
g _set4
v -0.482554 4.634593 1.489363
v -0.400030 4.634593 1.489363
v -0.491925 5.586777 1.497122
v -0.390659 5.586777 1.497122
v -0.471857 4.568301 1.489363
v -0.410728 4.568301 1.489363
v -0.478798 5.659830 1.497122
v -0.403786 5.659830 1.497122
g default
v -0.496308 5.110626 1.683800
v -0.482554 5.110626 1.757013
v -0.400030 5.110626 1.757013
v -0.386276 5.110626 1.683800
v -0.386276 4.723948 1.578013
v -0.400030 4.723948 1.651225
v -0.482554 4.723948 1.651225
v -0.496308 4.723948 1.578013
v -0.386276 5.488155 1.582596
v -0.400030 5.488155 1.655808
v -0.482554 5.488155 1.655808
v -0.496308 5.488155 1.582596
v -0.400030 4.603111 1.489363
v -0.441292 4.557146 1.489363
v -0.386276 5.110626 1.725636
v -0.386276 5.319622 1.650050
v -0.386276 5.488155 1.624432
v -0.441292 5.584863 1.497122
v -0.390659 5.624251 1.497122
v -0.491925 5.624251 1.497122
v -0.441292 5.663114 1.497122
v -0.496308 5.319622 1.650050
v -0.496308 5.488155 1.624431
v -0.496308 5.110626 1.725636
v -0.496308 4.723948 1.619849
v -0.475660 4.620286 1.577692
v -0.492886 4.657741 1.529571
v -0.406924 4.620286 1.577692
v -0.441292 4.723948 1.661684
v -0.389698 4.657741 1.529571
v -0.386276 4.723948 1.619849
v -0.386276 4.897056 1.646995
v -0.400030 4.897056 1.720207
v -0.482554 4.897056 1.720207
v -0.496308 4.897056 1.646995
v -0.405039 5.596658 1.582343
v -0.387096 5.558579 1.530500
v -0.477545 5.596658 1.582343
v -0.495488 5.558579 1.530500
v -0.441292 5.110626 1.767472
v -0.482554 5.319622 1.723263
v -0.400030 5.319622 1.723263
v -0.441292 5.488155 1.666267
v -0.441292 4.634593 1.489363
v -0.482554 4.603111 1.489363
v -0.441292 5.319622 1.733722
v -0.386276 5.319622 1.691886
v -0.496308 5.319622 1.691886
v -0.487115 4.636339 1.557069
v -0.441292 4.614936 1.584567
v -0.395469 4.636339 1.557069
v -0.386276 4.897056 1.688830
v -0.441292 4.897056 1.730666
v -0.496308 4.897056 1.688830
v -0.392955 5.580339 1.560124
v -0.441292 5.602098 1.589749
v -0.489629 5.580339 1.560124
v -0.441292 4.657741 1.529571
v -0.441292 4.723948 1.578013
v -0.441292 4.897056 1.646995
v -0.441292 5.110626 1.683800
v -0.441292 5.319622 1.650050
v -0.441292 5.488155 1.582596
v -0.441292 5.558579 1.530500
vt 0.575426 0.000483
vt 0.575426 0.604772
vt 0.569609 0.604772
vt 0.569609 0.000483
vt 0.579387 0.604772
vt 0.579387 0.000483
vt 0.585204 0.000483
vt 0.585204 0.604772
vt 0.269944 0.879343
vt 0.274220 0.879355
vt 0.274220 0.899500
vt 0.269894 0.899762
vt 0.278496 0.879355
vt 0.278544 0.899753
vt 0.278457 0.917284
vt 0.274221 0.916820
vt 0.269985 0.917278
vt 0.281936 0.879335
vt 0.281903 0.900571
vt 0.286157 0.879307
vt 0.285947 0.901747
vt 0.285142 0.920949
vt 0.281526 0.918769
vt 0.263302 0.920957
vt 0.262491 0.901753
vt 0.266535 0.900578
vt 0.266916 0.918769
vt 0.262283 0.879298
vt 0.266504 0.879326
vt 0.270051 0.840498
vt 0.267041 0.838954
vt 0.267931 0.828336
vt 0.270710 0.828656
vt 0.263523 0.836649
vt 0.264483 0.827871
vt 0.264277 0.822905
vt 0.267198 0.820907
vt 0.270653 0.818756
vt 0.274209 0.817970
vt 0.274242 0.828718
vt 0.277801 0.818644
vt 0.277777 0.828686
vt 0.278420 0.840517
vt 0.274233 0.840989
vt 0.284203 0.822879
vt 0.283997 0.827863
vt 0.280552 0.828344
vt 0.281271 0.820845
vt 0.284948 0.836666
vt 0.281430 0.838971
vt 0.285998 0.856353
vt 0.281945 0.857583
vt 0.278574 0.858431
vt 0.274227 0.858709
vt 0.269881 0.858441
vt 0.266510 0.857586
vt 0.262460 0.856350
vt 0.280973 0.929962
vt 0.277982 0.929732
vt 0.284681 0.930279
vt 0.284721 0.934856
vt 0.281674 0.937631
vt 0.594983 0.002439
vt 0.594983 0.261265
vt 0.589166 0.261265
vt 0.589166 0.002439
vt 0.598944 0.261265
vt 0.598944 0.002439
vt 0.604761 0.002439
vt 0.604761 0.261265
vt 0.278383 0.940128
vt 0.274228 0.929665
vt 0.270466 0.929707
vt 0.274274 0.940504
vt 0.270140 0.940226
vt 0.263758 0.934898
vt 0.263778 0.930300
vt 0.267481 0.929964
vt 0.266827 0.937699
vt 0.256888 0.856214
vt 0.256698 0.879288
vt 0.288481 0.822481
vt 0.289216 0.827316
vt 0.257981 0.836194
vt 0.258491 0.934834
vt 0.258254 0.930430
vt 0.256913 0.901831
vt 0.257727 0.921122
vt 0.306262 0.604772
vt 0.047437 0.604772
vt 0.047437 0.000483
vt 0.306262 0.000483
vt 0.566372 0.002439
vt 0.566372 0.606728
vt 0.307546 0.606728
vt 0.307546 0.002439
vt 0.260005 0.822467
vt 0.259241 0.827282
vt 0.289978 0.934799
vt 0.290207 0.930401
vt 0.290718 0.921110
vt 0.291526 0.901824
vt 0.291742 0.879297
vt 0.291569 0.856222
vt 0.290501 0.836194
vn 0.000000 0.000000 1.000000
vn 0.000000 0.000000 1.000000
vn 0.000000 0.000000 1.000000
vn 0.000000 0.000000 1.000000
vn 0.000000 0.000000 -1.000000
vn 0.000000 0.000000 -1.000000
vn 0.000000 0.000000 -1.000000
vn 0.000000 0.000000 -1.000000
vn 0.000000 -1.000000 0.000000
vn 0.000000 -1.000000 0.000000
vn 0.000000 -1.000000 0.000000
vn 0.000000 -1.000000 0.000000
vn 1.000000 0.000000 0.000000
vn 1.000000 0.000000 0.000000
vn 1.000000 0.000000 0.000000
vn 1.000000 0.000000 0.000000
vn 0.000000 1.000000 0.000000
vn 0.000000 1.000000 0.000000
vn 0.000000 1.000000 0.000000
vn 0.000000 1.000000 0.000000
vn -1.000000 0.000000 0.000000
vn -1.000000 0.000000 0.000000
vn -1.000000 0.000000 0.000000
vn -1.000000 0.000000 0.000000
vn -0.580945 -0.005864 0.813922
vn -0.000000 -0.007090 0.999975
vn -0.000001 0.254445 0.967087
vn -0.580469 0.210136 0.786701
vn 0.580943 -0.005865 0.813923
vn 0.580467 0.210137 0.786703
vn 0.571173 0.373916 0.730717
vn -0.000001 0.445617 0.895224
vn -0.571173 0.373916 0.730718
vn 0.978665 -0.001581 0.205457
vn 0.979333 0.055577 0.194470
vn 1.000000 -0.000000 0.000000
vn 1.000000 0.000000 0.000000
vn 0.998780 0.041433 0.026859
vn 0.976615 0.116109 0.180944
vn -0.998780 0.041434 0.026859
vn -1.000000 0.000000 0.000000
vn -0.979333 0.055577 0.194470
vn -0.976616 0.116109 0.180944
vn -1.000000 -0.000000 0.000001
vn -0.978665 -0.001582 0.205456
vn -0.573141 -0.377306 0.727427
vn -0.976848 -0.121433 0.176133
vn -0.955671 -0.251140 0.153692
vn -0.543987 -0.610280 0.575879
vn -0.998379 -0.052711 0.021467
vn -0.992079 -0.125573 0.003187
vn -0.988072 -0.140541 -0.062941
vn -0.952695 -0.292083 0.084018
vn -0.507147 -0.751067 0.422731
vn -0.000000 -0.860682 0.509144
vn -0.000000 -0.708731 0.705479
vn 0.507147 -0.751065 0.422732
vn 0.543988 -0.610279 0.575879
vn 0.573141 -0.377305 0.727427
vn 0.000001 -0.448882 0.893591
vn 0.988072 -0.140541 -0.062941
vn 0.992079 -0.125572 0.003187
vn 0.955671 -0.251140 0.153691
vn 0.952695 -0.292083 0.084018
vn 0.998379 -0.052710 0.021467
vn 0.976847 -0.121433 0.176134
vn 1.000000 -0.000000 0.000000
vn 0.979437 -0.056319 0.193732
vn 0.580781 -0.214141 0.785390
vn 0.000001 -0.259584 0.965721
vn -0.580781 -0.214142 0.785390
vn -0.979437 -0.056319 0.193732
vn -1.000000 -0.000000 0.000000
vn 0.954872 0.217407 0.202372
vn 0.511191 0.592616 0.622487
vn 0.995317 0.082062 0.051085
vn 0.996097 0.076459 0.044108
vn 0.939455 0.271026 0.209688
vn 0.415993 0.740603 0.527691
vn 0.000000 0.681984 0.731367
vn -0.511191 0.592616 0.622486
vn -0.000000 0.819386 0.573243
vn -0.415993 0.740603 0.527690
vn -0.996097 0.076459 0.044108
vn -0.995317 0.082063 0.051085
vn -0.954872 0.217406 0.202371
vn -0.939455 0.271025 0.209689
vn 0.000000 0.263883 -0.964555
vn 0.000001 0.263883 -0.964555
vn 0.000000 0.007230 -0.999974
vn 0.000000 0.007231 -0.999974
vn -0.000000 0.866645 -0.498925
vn -0.000000 0.694905 -0.719101
vn -0.000001 0.683402 -0.730042
vn -0.000002 0.866645 -0.498925
vn 0.000000 0.437706 -0.899118
vn 0.000001 0.438982 -0.898496
vn 0.000000 -0.774371 -0.632732
vn 0.000001 -0.656766 -0.754094
vn -0.004382 -0.654359 -0.756171
vn -0.014135 -0.774295 -0.632667
vn 0.000000 -0.258929 -0.965896
vn 0.000000 -0.258929 -0.965896
vn 0.000001 -0.447050 -0.894509
vn 0.000000 -0.446749 -0.894659
vn 0.004384 -0.654357 -0.756173
vn 0.000001 0.683402 -0.730042
vn 0.000002 0.437706 -0.899118
vn 0.000001 0.263883 -0.964555
vn 0.000000 0.007230 -0.999974
vn 0.000000 -0.258929 -0.965896
vn 0.000001 -0.446750 -0.894659
vn 0.014136 -0.774293 -0.632670
vn 0.000002 0.866645 -0.498926
s off
g _set2 polySurface22 polySurface8
f 4/89/1 1/90/2 2/91/3 3/92/4
f 6/93/5 5/94/6 8/95/7 7/96/8
f 6/63/9 7/64/10 3/65/11 2/66/12
f 7/1/13 8/2/14 4/3/15 3/4/16
f 8/67/17 5/68/18 1/69/19 4/70/20
f 5/5/21 6/6/22 2/7/23 1/8/24
s 1
g _set5 polySurface22 polySurface8
f 18/9/25 56/10/26 62/11/27 57/12/28
f 56/10/26 19/13/29 58/14/30 62/11/27
f 62/11/27 58/14/30 26/15/31 59/16/32
f 57/12/28 62/11/27 59/16/32 27/17/33
f 19/13/29 31/18/34 63/19/35 58/14/30
f 31/18/34 20/20/36 32/21/37 63/19/35
f 63/19/35 32/21/37 25/22/38 33/23/39
f 58/14/30 63/19/35 33/23/39 26/15/31
f 28/24/40 38/25/41 64/26/42 39/27/43
f 38/25/41 17/28/44 40/29/45 64/26/42
f 64/26/42 40/29/45 18/9/25 57/12/28
f 39/27/43 64/26/42 57/12/28 27/17/33
f 23/30/46 41/31/47 65/32/48 42/33/49
f 41/31/47 24/34/50 43/35/51 65/32/48
f 65/32/48 43/35/51 9/36/52 61/37/53
f 42/33/49 65/32/48 61/37/53 13/38/54
f 13/38/54 30/39/55 66/40/56 42/33/49
f 30/39/55 14/41/57 44/42/58 66/40/56
f 66/40/56 44/42/58 22/43/59 45/44/60
f 42/33/49 66/40/56 45/44/60 23/30/46
f 10/45/61 46/46/62 67/47/63 29/48/64
f 46/46/62 21/49/65 47/50/66 67/47/63
f 67/47/63 47/50/66 22/43/59 44/42/58
f 29/48/64 67/47/63 44/42/58 14/41/57
f 21/49/65 48/51/67 68/52/68 47/50/66
f 48/51/67 20/20/36 31/18/34 68/52/68
f 68/52/68 31/18/34 19/13/29 49/53/69
f 47/50/66 68/52/68 49/53/69 22/43/59
f 23/30/46 45/44/60 69/54/70 50/55/71
f 45/44/60 22/43/59 49/53/69 69/54/70
f 69/54/70 49/53/69 19/13/29 56/10/26
f 50/55/71 69/54/70 56/10/26 18/9/25
f 18/9/25 40/29/45 70/56/72 50/55/71
f 40/29/45 17/28/44 51/57/73 70/56/72
f 70/56/72 51/57/73 24/34/50 41/31/47
f 50/55/71 70/56/72 41/31/47 23/30/46
f 26/15/31 33/23/39 71/58/74 52/59/75
f 33/23/39 25/22/38 53/60/76 71/58/74
f 71/58/74 53/60/76 12/61/77 35/62/78
f 52/59/75 71/58/74 35/62/78 16/71/79
f 27/17/33 59/16/32 72/72/80 54/73/81
f 59/16/32 26/15/31 52/59/75 72/72/80
f 72/72/80 52/59/75 16/71/79 37/74/82
f 54/73/81 72/72/80 37/74/82 15/75/83
f 11/76/84 55/77/85 73/78/86 36/79/87
f 55/77/85 28/24/40 39/27/43 73/78/86
f 73/78/86 39/27/43 27/17/33 54/73/81
f 36/79/87 73/78/86 54/73/81 15/75/83
s 5
g polySurface22 polySurface8
f 48/51/88 76/104/89 77/103/90 20/20/91
f 60/82/92 74/83/93 46/46/94 10/45/95
f 21/49/96 75/105/97 76/104/89 48/51/88
f 34/85/98 80/86/99 55/77/100 11/76/101
f 20/20/91 77/103/90 78/102/102 32/21/103
f 32/21/103 78/102/102 79/101/104 25/22/105
f 25/22/105 79/101/104 80/100/99 53/60/106
f 74/83/93 75/105/97 21/49/96 46/46/94
f 43/35/107 24/34/108 75/84/97 74/98/93
f 76/80/89 75/84/97 24/34/108 51/57/109
f 77/81/90 76/80/89 51/57/109 17/28/110
f 78/87/102 77/81/90 17/28/110 38/25/111
f 79/88/104 78/87/102 38/25/111 28/24/112
f 80/86/99 79/88/104 28/24/112 55/77/100
f 53/60/106 80/100/99 34/99/98 12/61/113
f 43/35/107 74/98/93 60/97/92 9/36/114
