# This file uses centimeters as units for non-parametric coordinates.

g H:default1
v 1.048610 4.974267 -0.605415
v 0.605415 4.974267 -1.048610
v 0.000000 4.974267 -1.210830
v -0.605415 4.974267 -1.048610
v -1.048610 4.974267 -0.605415
v -1.210830 4.974267 0.000000
v -1.048610 4.974267 0.605415
v -0.605415 4.974267 1.048610
v 0.000000 4.974267 1.210830
v 0.605415 4.974267 1.048610
v 1.048610 4.974267 0.605415
v 1.210830 4.974267 0.000000
v 1.048610 15.828785 -0.605415
v 0.605415 15.828785 -1.048610
v 0.000000 15.828785 -1.210830
v -0.605415 15.828785 -1.048610
v -1.048610 15.828785 -0.605415
v -1.210830 15.828785 0.000000
v -1.048610 15.828785 0.605415
v -0.605415 15.828785 1.048610
v 0.000000 15.828785 1.210830
v 0.605415 15.828785 1.048610
v 1.048610 15.828785 0.605415
v 1.210830 15.828785 0.000000
v 0.877029 4.875065 -0.506353
v 0.506353 4.875065 -0.877029
v 0.000000 4.875065 -1.012705
v -0.506353 4.875065 -0.877029
v -0.877029 4.875065 -0.506353
v -1.012705 4.875065 0.000000
v -0.877029 4.875065 0.506353
v -0.506353 4.875065 0.877029
v 0.000000 4.875065 1.012705
v 0.506353 4.875065 0.877029
v 0.877029 4.875065 0.506353
v 1.012705 4.875065 0.000000
v 0.831490 4.417476 -0.480061
v 0.480061 4.417476 -0.831490
v 0.000000 4.417476 -0.960121
v -0.480061 4.417476 -0.831490
v -0.831490 4.417476 -0.480061
v -0.960121 4.417476 0.000000
v -0.831490 4.417476 0.480061
v -0.480061 4.417476 0.831490
v 0.000000 4.417476 0.960121
v 0.480061 4.417476 0.831490
v 0.831490 4.417476 0.480061
v 0.960121 4.417476 0.000000
v 0.272745 3.138490 -0.157469
v 0.157469 3.138490 -0.272745
v 0.000000 3.138490 0.000000
v 0.000000 3.138490 -0.314938
v -0.157469 3.138490 -0.272745
v -0.272745 3.138490 -0.157469
v -0.314938 3.138490 0.000000
v -0.272745 3.138490 0.157469
v -0.157469 3.138490 0.272745
v 0.000000 3.138490 0.314938
v 0.157469 3.138490 0.272745
v 0.272745 3.138490 0.157469
v 0.314938 3.138490 0.000000
v 0.000000 15.828786 0.000000
vt 0.716444 0.286047
vt 0.792827 0.318315
vt 0.875123 0.308062
vt 0.941252 0.258039
vt 0.973510 0.181661
vt 0.963262 0.099384
vt 0.913247 0.033247
vt 0.836858 0.000977
vt 0.754566 0.011229
vt 0.688430 0.061258
vt 0.656173 0.137646
vt 0.666430 0.219921
vt 0.653059 0.942048
vt 0.598719 0.942048
vt 0.544379 0.942048
vt 0.490039 0.942048
vt 0.435698 0.942048
vt 0.381358 0.942048
vt 0.327018 0.942048
vt 0.272678 0.942048
vt 0.218337 0.942048
vt 0.163997 0.942048
vt 0.109657 0.942048
vt 0.055317 0.942048
vt 0.000977 0.942048
vt 0.653059 0.000977
vt 0.598719 0.000977
vt 0.544379 0.000977
vt 0.490039 0.000977
vt 0.435698 0.000977
vt 0.381358 0.000977
vt 0.327018 0.000977
vt 0.272678 0.000977
vt 0.218337 0.000977
vt 0.163997 0.000977
vt 0.109657 0.000977
vt 0.055317 0.000977
vt 0.000977 0.000977
vt 0.924793 0.310699
vt 0.870453 0.310699
vt 0.823393 0.337869
vt 0.796223 0.384929
vt 0.796223 0.439270
vt 0.823393 0.486330
vt 0.870453 0.513500
vt 0.924793 0.513500
vt 0.971853 0.486330
vt 0.999023 0.439270
vt 0.999023 0.384929
vt 0.971853 0.337869
vt 0.814828 0.159590
vt 0.897623 0.412099
vt 0.795676 0.297139
vt 0.729499 0.269133
vt 0.867002 0.288299
vt 0.924338 0.244984
vt 0.952334 0.178811
vt 0.943498 0.107503
vt 0.900191 0.050160
vt 0.834009 0.022152
vt 0.762687 0.030992
vt 0.705346 0.074310
vt 0.677349 0.140492
vt 0.686192 0.211799
vt 0.799866 0.260819
vt 0.751292 0.239773
vt 0.852480 0.254752
vt 0.894981 0.223191
vt 0.916011 0.174615
vt 0.909944 0.122030
vt 0.878397 0.079516
vt 0.829815 0.058470
vt 0.777216 0.064540
vt 0.734704 0.096099
vt 0.713671 0.144684
vt 0.719746 0.197269
vt 0.807702 0.180651
vt 0.798198 0.174229
vt 0.819131 0.181551
vt 0.829395 0.176380
vt 0.835764 0.166833
vt 0.836550 0.155390
vt 0.831524 0.145083
vt 0.822013 0.138671
vt 0.810566 0.137886
vt 0.800266 0.142945
vt 0.793887 0.152484
vt 0.793137 0.163934
vn 0.437806 -0.483010 -0.758305
vn 0.758305 -0.483010 -0.437807
vn 0.000000 -1.000000 0.000000
vn 0.000000 -0.483010 -0.875615
vn -0.437806 -0.483010 -0.758305
vn -0.758305 -0.483010 -0.437807
vn -0.875615 -0.483010 0.000000
vn -0.758305 -0.483010 0.437807
vn -0.437806 -0.483010 0.758305
vn 0.000000 -0.483010 0.875615
vn 0.437806 -0.483010 0.758305
vn 0.758305 -0.483010 0.437807
vn 0.875615 -0.483010 0.000000
vn 0.223858 -0.894175 -0.387735
vn 0.387734 -0.894176 -0.223858
vn 0.764061 -0.470761 -0.441130
vn 0.441130 -0.470761 -0.764061
vn -0.000000 -0.894175 -0.447717
vn -0.000000 -0.470760 -0.882261
vn -0.223858 -0.894176 -0.387734
vn -0.441130 -0.470761 -0.764061
vn -0.387734 -0.894176 -0.223858
vn -0.764061 -0.470761 -0.441130
vn -0.447716 -0.894176 -0.000000
vn -0.882261 -0.470760 -0.000000
vn -0.387734 -0.894176 0.223858
vn -0.764061 -0.470761 0.441130
vn -0.223858 -0.894175 0.387735
vn -0.441130 -0.470761 0.764061
vn 0.000000 -0.894175 0.447717
vn 0.000000 -0.470760 0.882261
vn 0.223858 -0.894176 0.387734
vn 0.441130 -0.470761 0.764061
vn 0.387734 -0.894176 0.223858
vn 0.764061 -0.470761 0.441130
vn 0.447716 -0.894176 0.000000
vn 0.882261 -0.470760 0.000000
vn 0.815618 -0.336190 -0.470897
vn 0.470896 -0.336190 -0.815618
vn -0.000000 -0.336189 -0.941794
vn -0.470896 -0.336190 -0.815618
vn -0.815618 -0.336190 -0.470897
vn -0.941794 -0.336189 -0.000000
vn -0.815618 -0.336190 0.470897
vn -0.470896 -0.336190 0.815618
vn 0.000000 -0.336189 0.941794
vn 0.470896 -0.336190 0.815618
vn 0.815618 -0.336190 0.470897
vn 0.941794 -0.336189 0.000000
vn 0.000001 1.000000 0.000000
vn 0.000000 1.000000 0.000003
vn 0.000000 1.000000 0.000000
vn 0.000000 1.000000 0.000000
vn -0.000000 1.000000 0.000001
vn -0.000001 1.000000 -0.000001
vn -0.000001 1.000000 0.000000
vn -0.000001 1.000000 -0.000000
vn -0.000000 1.000000 -0.000003
vn 0.000000 1.000000 0.000000
vn 0.000000 1.000000 -0.000001
vn 0.000001 1.000000 0.000001
vn 0.000001 1.000000 0.000000
vn 0.500000 0.000000 0.866025
vn 0.000000 0.000000 1.000000
vn 0.000000 0.000000 1.000000
vn 0.500000 0.000000 0.866025
vn -0.500000 0.000000 0.866025
vn -0.500000 0.000000 0.866025
vn -0.866026 0.000000 0.500000
vn -0.866026 0.000000 0.500000
vn -1.000000 0.000000 0.000000
vn -1.000000 0.000000 0.000000
vn -0.866026 0.000000 -0.500000
vn -0.866026 0.000000 -0.500000
vn -0.500000 0.000000 -0.866025
vn -0.500000 0.000000 -0.866025
vn 0.000000 0.000000 -1.000000
vn 0.000000 0.000000 -1.000000
vn 0.500000 0.000000 -0.866025
vn 0.500000 0.000000 -0.866025
vn 0.707107 0.000000 -0.707107
vn 0.707107 0.000000 -0.707107
vn 0.965926 0.000000 -0.258818
vn 1.000000 0.000000 0.000000
vn 1.000000 0.000000 0.000000
vn 0.965926 0.000000 -0.258818
vn 0.866026 0.000000 0.500000
vn 0.866026 0.000000 0.500000
s 1
g H:pCylinder1 H:polySurface1
f 50/77/1 49/78/2 51/51/3
f 52/79/4 50/77/1 51/51/3
f 53/80/5 52/79/4 51/51/3
f 54/81/6 53/80/5 51/51/3
f 55/82/7 54/81/6 51/51/3
f 56/83/8 55/82/7 51/51/3
f 57/84/9 56/83/8 51/51/3
f 58/85/10 57/84/9 51/51/3
f 59/86/11 58/85/10 51/51/3
f 60/87/12 59/86/11 51/51/3
f 61/88/13 60/87/12 51/51/3
f 49/78/2 61/88/13 51/51/3
f 2/2/14 1/1/15 25/54/16 26/53/17
f 3/3/18 2/2/14 26/53/17 27/55/19
f 4/4/20 3/3/18 27/55/19 28/56/21
f 5/5/22 4/4/20 28/56/21 29/57/23
f 6/6/24 5/5/22 29/57/23 30/58/25
f 7/7/26 6/6/24 30/58/25 31/59/27
f 8/8/28 7/7/26 31/59/27 32/60/29
f 9/9/30 8/8/28 32/60/29 33/61/31
f 10/10/32 9/9/30 33/61/31 34/62/33
f 11/11/34 10/10/32 34/62/33 35/63/35
f 12/12/36 11/11/34 35/63/35 36/64/37
f 1/1/15 12/12/36 36/64/37 25/54/16
f 26/53/17 25/54/16 37/66/38 38/65/39
f 27/55/19 26/53/17 38/65/39 39/67/40
f 28/56/21 27/55/19 39/67/40 40/68/41
f 29/57/23 28/56/21 40/68/41 41/69/42
f 30/58/25 29/57/23 41/69/42 42/70/43
f 31/59/27 30/58/25 42/70/43 43/71/44
f 32/60/29 31/59/27 43/71/44 44/72/45
f 33/61/31 32/60/29 44/72/45 45/73/46
f 34/62/33 33/61/31 45/73/46 46/74/47
f 35/63/35 34/62/33 46/74/47 47/75/48
f 36/64/37 35/63/35 47/75/48 48/76/49
f 25/54/16 36/64/37 48/76/49 37/66/38
f 38/65/39 37/66/38 49/78/2 50/77/1
f 39/67/40 38/65/39 50/77/1 52/79/4
f 40/68/41 39/67/40 52/79/4 53/80/5
f 41/69/42 40/68/41 53/80/5 54/81/6
f 42/70/43 41/69/42 54/81/6 55/82/7
f 43/71/44 42/70/43 55/82/7 56/83/8
f 44/72/45 43/71/44 56/83/8 57/84/9
f 45/73/46 44/72/45 57/84/9 58/85/10
f 46/74/47 45/73/46 58/85/10 59/86/11
f 47/75/48 46/74/47 59/86/11 60/87/12
f 48/76/49 47/75/48 60/87/12 61/88/13
f 37/66/38 48/76/49 61/88/13 49/78/2
s 3
f 13/49/50 14/48/51 62/52/52
f 14/48/51 15/47/53 62/52/52
f 15/47/53 16/46/54 62/52/52
f 16/46/54 17/45/55 62/52/52
f 17/45/55 18/44/56 62/52/52
f 18/44/56 19/43/57 62/52/52
f 19/43/57 20/42/58 62/52/52
f 20/42/58 21/41/59 62/52/52
f 21/41/59 22/40/60 62/52/52
f 22/40/60 23/39/61 62/52/52
f 23/39/61 24/50/62 62/52/52
f 24/50/62 13/49/50 62/52/52
s 4
f 22/35/63 21/34/64 9/21/65 10/22/66
f 21/34/64 20/33/67 8/20/68 9/21/65
f 20/33/67 19/32/69 7/19/70 8/20/68
f 19/32/69 18/31/71 6/18/72 7/19/70
f 18/31/71 17/30/73 5/17/74 6/18/72
f 17/30/73 16/29/75 4/16/76 5/17/74
f 16/29/75 15/28/77 3/15/78 4/16/76
f 15/28/77 14/27/79 2/14/80 3/15/78
f 14/27/79 13/26/81 1/13/82 2/14/80
f 13/38/83 24/37/84 12/24/85 1/25/86
f 24/37/84 23/36/87 11/23/88 12/24/85
f 23/36/87 22/35/63 10/22/66 11/23/88
